<svg xmlns:mydata="http://www.w3.org/2000/svg" mydata:contrastcolor="280071" mydata:template="Contrast" mydata:presentation="2.5" mydata:layouttype="undefined" mydata:specialfontid="undefined" mydata:id1="907" mydata:id2="251" mydata:companyname="Beauty Malagasy" xmlns="http://www.w3.org/2000/svg" viewBox="0 0 550 470"><g data-paper-data="{&quot;isGlobalGroup&quot;:true,&quot;bounds&quot;:{&quot;x&quot;:65.00000000000001,&quot;y&quot;:185.50415908895542,&quot;width&quot;:419.99999999999994,&quot;height&quot;:98.99190247778165}}" fill="none" fill-rule="none" stroke-miterlimit="10" font-family="none" font-weight="none" font-size="none" text-anchor="none" style="mix-blend-mode:normal"><g data-paper-data="{&quot;isSecondaryText&quot;:true}" fill="#e31c79" fill-rule="nonzero"><path d="M189.69 261.26c.663-.227 1.46-.45 2.389-.668.93-.218 2.105-.327 3.528-.327.777 0 1.546.062 2.304.185.759.123 1.46.374 2.105.754a10.095 10.095 0 0 1 1.736-.655c.664-.19 1.413-.284 2.247-.284.74 0 1.504.071 2.29.213a5.206 5.206 0 0 1 2.134.896c.636.456 1.157 1.11 1.565 1.963.408.854.612 1.982.612 3.386v8.506c-.493.095-.939.157-1.337.185-.399.029-.75.043-1.053.043-.322 0-.683-.014-1.081-.043-.398-.028-.844-.09-1.337-.185v-7.994c0-1.005-.17-1.726-.512-2.162-.342-.436-.901-.654-1.679-.654-.265 0-.526.028-.782.085a3.973 3.973 0 0 0-.527.142c.171.664.257 1.423.257 2.276v8.307c-.494.095-.94.157-1.338.185-.398.029-.749.043-1.052.043-.323 0-.683-.014-1.081-.043-.399-.028-.844-.09-1.337-.185v-7.994c0-1.005-.162-1.726-.484-2.162-.323-.436-.873-.654-1.65-.654-.209 0-.432.019-.669.056-.237.038-.384.076-.44.114v10.64c-.494.095-.94.157-1.338.185-.398.029-.75.043-1.053.043-.322 0-.682-.014-1.08-.043-.399-.028-.845-.09-1.338-.185z" data-paper-data="{&quot;glyphName&quot;:&quot;m&quot;,&quot;glyphIndex&quot;:0,&quot;firstGlyphOfWord&quot;:true,&quot;word&quot;:1}"/><path d="M246.158 265.727c-.019-.341-.113-.626-.284-.853a1.697 1.697 0 0 0-.654-.527 3.183 3.183 0 0 0-.882-.256 6.836 6.836 0 0 0-.996-.07c-.455 0-.986.051-1.593.156-.607.104-1.233.27-1.878.498-.17-.323-.318-.617-.441-.882a4.342 4.342 0 0 1-.284-.811 6.164 6.164 0 0 1-.143-.854 10.6 10.6 0 0 1-.042-1.01c.91-.303 1.816-.53 2.717-.682.9-.152 1.711-.228 2.432-.228.986 0 1.878.119 2.674.356.797.237 1.475.602 2.034 1.095.56.493.991 1.124 1.295 1.892.303.768.455 1.683.455 2.745v8.336c-.72.209-1.593.417-2.617.626a16.223 16.223 0 0 1-3.244.313c-.986 0-1.891-.09-2.716-.27-.826-.18-1.532-.47-2.12-.868a4.124 4.124 0 0 1-1.38-1.58c-.332-.653-.498-1.455-.498-2.403 0-.93.2-1.698.598-2.305a4.5 4.5 0 0 1 1.536-1.45 6.545 6.545 0 0 1 2.077-.754 12.03 12.03 0 0 1 2.219-.214zm0 3.016h-1.621c-.664 0-1.224.142-1.679.427-.455.284-.683.682-.683 1.195 0 .379.086.678.256.896.171.218.385.384.64.498.257.113.532.19.826.227.294.038.564.057.81.057.171 0 .418-.019.74-.057a6.22 6.22 0 0 0 .711-.114z" data-paper-data="{&quot;glyphName&quot;:&quot;a&quot;,&quot;glyphIndex&quot;:1,&quot;word&quot;:1}"/><path d="M275.27 260.55c.417-.095.83-.162 1.237-.2.408-.038.802-.057 1.181-.057.36 0 .75.02 1.167.057a8.66 8.66 0 0 1 1.223.2l-.029 10.696h5.377c.095.38.157.73.185 1.053a10.685 10.685 0 0 1 0 1.892 6.82 6.82 0 0 1-.185 1.067h-10.185z" data-paper-data="{&quot;glyphName&quot;:&quot;l&quot;,&quot;glyphIndex&quot;:2,&quot;word&quot;:1}"/><path d="M315.375 265.727c-.019-.341-.114-.626-.284-.853a1.697 1.697 0 0 0-.655-.527 3.183 3.183 0 0 0-.882-.256 6.836 6.836 0 0 0-.995-.07c-.456 0-.987.051-1.594.156-.606.104-1.232.27-1.877.498-.17-.323-.318-.617-.441-.882a4.342 4.342 0 0 1-.285-.811 6.164 6.164 0 0 1-.142-.854 10.6 10.6 0 0 1-.043-1.01c.91-.303 1.816-.53 2.717-.682.901-.152 1.712-.228 2.433-.228.986 0 1.877.119 2.674.356.797.237 1.475.602 2.034 1.095.56.493.991 1.124 1.295 1.892.303.768.455 1.683.455 2.745v8.336c-.72.209-1.593.417-2.618.626a16.223 16.223 0 0 1-3.243.313c-.986 0-1.892-.09-2.717-.27-.825-.18-1.531-.47-2.12-.868a4.124 4.124 0 0 1-1.379-1.58c-.332-.653-.498-1.455-.498-2.403 0-.93.2-1.698.598-2.305a4.5 4.5 0 0 1 1.536-1.45 6.545 6.545 0 0 1 2.077-.754 12.03 12.03 0 0 1 2.219-.214zm0 3.016h-1.622c-.663 0-1.223.142-1.678.427-.455.284-.683.682-.683 1.195 0 .379.086.678.256.896.17.218.384.384.64.498.256.113.531.19.825.227.294.038.565.057.811.057.17 0 .417-.019.74-.057a6.22 6.22 0 0 0 .711-.114z" data-paper-data="{&quot;glyphName&quot;:&quot;a&quot;,&quot;glyphIndex&quot;:3,&quot;word&quot;:1}"/><path d="M352.935 271.503v-4.183c.474-.094.896-.16 1.266-.199.37-.038.725-.057 1.067-.057.663 0 1.45.086 2.361.256v7.227c-.55.208-1.318.436-2.304.682-.987.247-2.134.37-3.443.37-1.365 0-2.527-.204-3.485-.611-.958-.408-1.74-.963-2.347-1.665a6.495 6.495 0 0 1-1.323-2.475 10.883 10.883 0 0 1-.413-3.044c0-1.043.166-2.03.498-2.959a6.71 6.71 0 0 1 1.48-2.418c.654-.683 1.465-1.223 2.432-1.622.967-.398 2.087-.597 3.357-.597.664 0 1.394.076 2.19.228.797.151 1.67.417 2.618.796a6.63 6.63 0 0 1-.114.91c-.056.285-.128.574-.213.868-.085.294-.19.607-.313.94-.123.331-.27.706-.44 1.123a11.168 11.168 0 0 0-1.793-.583c-.55-.124-1.024-.185-1.423-.185-.626 0-1.157.095-1.593.284-.436.19-.787.446-1.052.768-.266.323-.46.697-.584 1.124a4.743 4.743 0 0 0-.185 1.323c0 1.27.275 2.205.825 2.802.55.598 1.357.897 2.419.897z" data-paper-data="{&quot;glyphName&quot;:&quot;g&quot;,&quot;glyphIndex&quot;:4,&quot;word&quot;:1}"/><path d="M389.57 265.727c-.02-.341-.114-.626-.285-.853a1.697 1.697 0 0 0-.654-.527 3.183 3.183 0 0 0-.882-.256 6.836 6.836 0 0 0-.996-.07c-.455 0-.986.051-1.593.156-.607.104-1.233.27-1.878.498-.17-.323-.318-.617-.44-.882a4.342 4.342 0 0 1-.285-.811 6.164 6.164 0 0 1-.143-.854 10.6 10.6 0 0 1-.042-1.01c.91-.303 1.816-.53 2.717-.682.9-.152 1.711-.228 2.432-.228.986 0 1.878.119 2.674.356.797.237 1.475.602 2.035 1.095s.99 1.124 1.294 1.892c.303.768.455 1.683.455 2.745v8.336c-.72.209-1.593.417-2.617.626a16.223 16.223 0 0 1-3.243.313c-.987 0-1.892-.09-2.717-.27-.825-.18-1.532-.47-2.12-.868a4.124 4.124 0 0 1-1.38-1.58c-.332-.653-.498-1.455-.498-2.403 0-.93.2-1.698.598-2.305a4.5 4.5 0 0 1 1.536-1.45 6.545 6.545 0 0 1 2.077-.754 12.03 12.03 0 0 1 2.22-.214zm0 3.016h-1.622c-.664 0-1.223.142-1.679.427-.455.284-.682.682-.682 1.195 0 .379.085.678.256.896.17.218.384.384.64.498.256.113.53.19.825.227.294.038.564.057.81.057.171 0 .418-.019.74-.057a6.22 6.22 0 0 0 .711-.114z" data-paper-data="{&quot;glyphName&quot;:&quot;a&quot;,&quot;glyphIndex&quot;:5,&quot;word&quot;:1}"/><path d="M421.39 269.34c-1.005-.284-1.84-.768-2.503-1.45-.664-.683-.996-1.613-.996-2.789 0-.74.152-1.413.456-2.02a4.478 4.478 0 0 1 1.28-1.55c.55-.427 1.2-.754 1.949-.982.749-.227 1.579-.341 2.489-.341.72 0 1.508.076 2.361.228.854.151 1.698.37 2.532.654a8.652 8.652 0 0 1-.37 1.949 11.59 11.59 0 0 1-.71 1.835 12.735 12.735 0 0 0-1.85-.57 8.689 8.689 0 0 0-1.991-.255c-.892 0-1.338.246-1.338.74 0 .208.105.37.313.483.209.114.446.209.712.285l1.849.483a9.265 9.265 0 0 1 1.55.555c.465.218.863.498 1.195.84.332.34.593.758.783 1.251.19.493.284 1.09.284 1.792 0 .721-.147 1.394-.44 2.02a4.465 4.465 0 0 1-1.31 1.622c-.578.455-1.29.815-2.133 1.081-.844.266-1.816.398-2.916.398-.91 0-1.755-.066-2.532-.199a13.948 13.948 0 0 1-2.476-.683c.095-1.29.446-2.598 1.053-3.926a8.84 8.84 0 0 0 1.906.64 9.48 9.48 0 0 0 2.703.185c.246-.019.465-.061.654-.128.19-.066.346-.156.47-.27a.59.59 0 0 0 .185-.455c0-.247-.124-.432-.37-.555a5.181 5.181 0 0 0-.854-.327z" data-paper-data="{&quot;glyphName&quot;:&quot;s&quot;,&quot;glyphIndex&quot;:6,&quot;word&quot;:1}"/><path d="m457.205 270.08-5.462-9.53c.209-.039.574-.076 1.095-.114a23.865 23.865 0 0 1 1.722-.057c.493 0 .976.019 1.45.057.475.038.788.075.94.113l2.787 5.605 2.789-5.605c.151-.038.44-.075.867-.113.427-.038.887-.057 1.38-.057.626 0 1.185.019 1.679.057.493.038.844.075 1.052.113l-5.49 9.531v5.15a23.57 23.57 0 0 1-1.338.17 11.5 11.5 0 0 1-1.08.057 11.5 11.5 0 0 1-1.082-.057 20.84 20.84 0 0 1-1.309-.17z" data-paper-data="{&quot;glyphName&quot;:&quot;y&quot;,&quot;glyphIndex&quot;:7,&quot;lastGlyphOfWord&quot;:true,&quot;word&quot;:1}"/></g><g data-paper-data="{&quot;isPrimaryText&quot;:true}" fill="#ffc72c" fill-rule="nonzero"><path d="M198.891 233.547c4.893 1.36 10.589 2.366 15.3 4.149 6.24 2.444 4.34 3.227-1.545 1.357-3.383-1.085-6.963-2.479-10.147-3.402-1.48-.475-2.754-.765-3.772-.846.059-.412.112-.833.164-1.258zm17.899-25.858c-1.814 3.05-5.042 5.84-7.686 8.16-3.347 2.93-6.785 5.621-9.7 8.531-.016-3.694-.292-7.167-.77-10.207 3.913-1.64 8.118-3.479 12.334-4.926 2.056-.692 3.898-1.277 5.822-1.558zm13.608-2.278c-.359-6.861-5.542-11.387-12.701-10.986-4.53.192-8.363 1.69-11.456 3.123-4.208 1.918-7.607 3.999-11.032 6.41-.695-.879-1.448-1.361-2.236-1.367-1.878-.013-3.593 2.685-4.824 7.016-1.771 1.627-4.057 4.095-5.017 5.601-.763 1.193-1.898 3.45.544 3.7.819.081 2.062-.127 2.882-.317-.2 2.087-.316 4.3-.332 6.593-.088 12.513 2.793 22.693 6.43 22.719 2.005.014 3.823-3.06 5.066-7.916 2.503 3.475 6.188 6.474 10.237 8.964 3.821 2.368 9.989 5.542 16.336 3.694 5.302-1.577 9.144-7.415 7.68-14.688-1.762-8.152-9.681-11.732-18.202-12.702 5.594-2.787 11.287-6.535 14.595-12.142 1.148-1.92 2.144-4.553 2.03-7.702z" data-paper-data="{&quot;glyphName&quot;:&quot;B&quot;,&quot;glyphIndex&quot;:0,&quot;firstGlyphOfWord&quot;:true,&quot;word&quot;:1}"/><path d="M264.765 213.246c10.545-1.03 19.524-5.018 19.096-8.792-.333-2.937-6.228-4.786-14.044-4.74-1.804.011-3.71.123-5.673.346-10.444 1.185-18.614 5.083-18.204 8.697.252 2.215 3.668 3.811 8.679 4.443-.811 2.982-1.406 6.628-1.685 10.633-3.812 1.93-6.098 4.423-5.668 6.673.358 1.873 2.529 3.208 5.702 3.826.252 3.192.724 6.06 1.366 8.407-5.68 2.228-9.303 5.237-8.797 7.779.71 3.567 9.285 4.87 19.11 2.914 9.851-1.962 17.273-6.45 16.563-10.017-.653-3.28-7.952-4.645-16.779-3.32.46-1.933.833-4.103 1.098-6.435 7.217-1.83 12.33-5.613 11.705-8.883-.547-2.858-5.312-4.461-11.433-4.18-.197-2.714-.552-5.204-1.036-7.351z" data-paper-data="{&quot;glyphName&quot;:&quot;E&quot;,&quot;glyphIndex&quot;:1,&quot;word&quot;:1}"/><path d="M322.144 217.846c.69 3.221 1.143 5.42 1.86 8.742a69.841 69.841 0 0 0-6.008-.02c1.319-2.748 2.768-5.828 4.148-8.722zm-10.758 21.711c5.058.41 11.028.135 15.572-.582.772 2.784 1.992 6.483 2.995 8.287 1.431 2.59 2.775 2.578 3.768-.331.787-2.32 1.248-6.53 1.418-10.034 6.51-2.55 6.856-6.206.078-8.482-.21-8.46-.9-16.981-2.97-24.134-.652-2.346-1.625-4.56-3.305-6.283-1.136-1.391-4.853-2.737-7.615-1.717-3.855 1.62-5.37 4.596-7.12 8.062-3.748 7.385-6.528 15.626-8.818 24.014-5.055 1.374-8.281 3.37-8.21 5.492.057 1.737 2.314 3.244 5.947 4.303-.682 3.787-2.064 14.735 2.788 9.627 1.7-1.79 3.94-5.473 5.472-8.222z" data-paper-data="{&quot;glyphName&quot;:&quot;A&quot;,&quot;glyphIndex&quot;:2,&quot;word&quot;:1}"/><path d="M379.474 211.597c-.421 1.077-.787 2.587-1.137 4.452-1.158 6.21-1.84 13.339-3.718 19.146-.58 1.747-1.222 3.429-2.059 4.74-.917 1.456-1.802 2.65-3.961 2.751-.262-.018-.529-.026-.515-.042-.39-.45-.591-.945-.878-1.755-1.179-3.47-1.19-8.686-1.103-13.18.06-2.834.205-5.705.323-8.16.22-4.51.63-9.257-.011-12.974-.5-3.111-1.917-3.259-3.807-1.074-.915 1.083-1.936 2.74-2.986 4.908-2.142 4.42-4.009 10.06-5.16 15.997-.537 2.75-.956 5.836-1.052 9.159-.282 9.886 2.88 17.47 10.3 20.008 3.546 1.132 7.12.936 10.483-.247 10.931-3.949 14.652-18.333 12.278-33.268-.66-4.167-1.742-8.32-3.435-10.886-1.416-2.093-2.666-1.943-3.562.425z" data-paper-data="{&quot;glyphName&quot;:&quot;U&quot;,&quot;glyphIndex&quot;:3,&quot;word&quot;:1}"/><path d="M420.202 196.678c-10.667-.115-19.706 2.82-19.766 6.617-.052 3.245 6.453 6.032 15.184 6.815-1.338 4.64-2.285 10.96-2.54 17.943-.524 14.455 2.104 26.342 5.868 26.526 3.764.184 7.244-11.404 7.77-25.86.262-7.216-.266-13.798-1.33-18.596 8.257-.728 14.344-3.295 14.393-6.413.06-3.767-8.714-6.917-19.579-7.032z" data-paper-data="{&quot;glyphName&quot;:&quot;T&quot;,&quot;glyphIndex&quot;:4,&quot;word&quot;:1}"/><path d="M467.696 244.48c.007 0 .015-.002.023-.004.305-.11.902-.17 1.336-.074-.499.053-.949.079-1.359.079zm-12.345-36.327c-1.549 4.867-3.032 14.152-1.903 21.314.698 4.461 3.015 9.17 8.565 9.12 3.58-.066 5.94-2.101 7.606-4.152-.436 3.274-.884 6.874-1.904 9.566-.06.165-.188.454-.06.48-1.77-.013-2.773-.552-3.666-1.77-.267-.369-.554-.843-1.035-.936-.65-.127-.996.351-1.278.815-1.262 2.064-.323 4.83 1.391 6.486a9.137 9.137 0 0 0 2.212 1.574c1.39.71 3.116 1.507 5.136 1.007 3.003-.793 4.798-3.352 6.107-5.725 3.12-5.564 4.887-12.373 6.291-19.615 1.18-6.07 2.187-12.57 2.187-19.752.033-6.07-1.902-11.436-8.276-10.86-1.835.372-3.01.841-3.522 1.382-1.94 1.535-2.902 3.324-3.857 5.554-2.554 5.932-4.421 12.468-6.73 18.532-.832-4.468-1.387-9.504-2.117-12.745-1.312-6.288-3.217-6.03-5.147-.275z" data-paper-data="{&quot;glyphName&quot;:&quot;Y&quot;,&quot;glyphIndex&quot;:5,&quot;lastGlyphOfWord&quot;:true,&quot;word&quot;:1}"/></g><g data-paper-data="{&quot;isIcon&quot;:&quot;true&quot;,&quot;iconType&quot;:&quot;icon&quot;,&quot;rawIconId&quot;:&quot;2760084&quot;,&quot;selectedEffects&quot;:{&quot;container&quot;:&quot;&quot;,&quot;transformation&quot;:&quot;&quot;,&quot;pattern&quot;:&quot;&quot;},&quot;isDetailed&quot;:false,&quot;fillRule&quot;:&quot;evenodd&quot;,&quot;bounds&quot;:{&quot;x&quot;:65.00000000000001,&quot;y&quot;:185.50415908895542,&quot;width&quot;:91.49769190672104,&quot;height&quot;:98.99190247778165},&quot;iconStyle&quot;:&quot;standalone&quot;,&quot;suitableAsStandaloneIcon&quot;:true}" fill-rule="evenodd"><g data-paper-data="{&quot;isPathIcon&quot;:true}"><path d="M100.785 187.702a10.105 10.105 0 0 1 7.764-2.09 12.157 12.157 0 0 1 10.272 12.222c.135 1.297.116 1.603-.639.006-2.409-5.087-3.377-10.294-10.508-10.524a8.38 8.38 0 0 0-6.363 2.104 10.878 10.878 0 0 0-2.63 5.801 14.873 14.873 0 0 0 .223 3.773c.204 1.237-.39.439-.71-.58a14.016 14.016 0 0 1-.626-4.25 10.462 10.462 0 0 1 3.217-6.462z" fill="#ffc72c"/><path d="M124.847 197.916a5.204 5.204 0 0 0-1.685-3.695c-.95-.867-2.108-1.483-3.133-2.256a26.85 26.85 0 0 1-3.325-2.829.204.204 0 0 0-.313.26 24.622 24.622 0 0 0 2.362 3.157c.842.9 1.788 1.673 2.677 2.524a4.952 4.952 0 0 1 1.525 2.878c.15.627.225 1.269.226 1.914a6.332 6.332 0 0 0 .083 1.957.276.276 0 0 0 .49.111 4.68 4.68 0 0 0 .774-1.943c.183-.679.29-1.376.32-2.078zM114.44 199.373a6.875 6.875 0 0 1 3.953 2.285c.197.26-.12.515-.39.401a20.626 20.626 0 0 0-4.928-1.188 10.964 10.964 0 0 1-4.878-1.802 14.08 14.08 0 0 1-3.389-3.741l-.058-.115a3.266 3.266 0 0 1-.383.76 13.859 13.859 0 0 1-1.835 1.682 4.178 4.178 0 0 0-1.3 2.521c-.025.148-.232.198-.248.041a3.515 3.515 0 0 1 .451-2.076c.374-.72.807-1.387 1.148-2.139a8.012 8.012 0 0 0 .775-2.238 13.497 13.497 0 0 0-.343-3.18c-.116-.692.18-.453.324-.337a9.566 9.566 0 0 1 1.589 2.059c.509.705.961 1.433 1.521 2.098a14.86 14.86 0 0 0 3.235 3.235 16.882 16.882 0 0 0 4.755 1.734z" fill="#ffc72c"/><path d="M117.7 205.358a12.042 12.042 0 0 1 3-5.156c.133-.136.297.055.186.205a9.595 9.595 0 0 0-1.568 3.144 33.772 33.772 0 0 0-.756 3.233 351.49 351.49 0 0 0-2.34 14.644 58.231 58.231 0 0 0-.684 6.797c-.02 1.066.06 2.132.24 3.184.048.292.128.581.21.872.2.727.402 1.46.118 2.24l-.03.093c-.078.237-.137.418-.645.184-1.234-.569-2.893-1.772-4.199-2.284a5.158 5.158 0 0 0-2.086-.416 2.935 2.935 0 0 0-1.693.636c-.454.306-.862.626-1.273.964-.399.342-.773.711-1.119 1.106-.726.793-1.362 1.656-2.07 2.463a51.606 51.606 0 0 1-5.52 5.23c-.99.84-1.97 1.683-2.962 2.522-.197.166-.394.31-.585.497-.192.187-.377.413-.58.602-.298.28-.636.52-.947.79-.182.16-.35.334-.506.52a18.251 18.251 0 0 0-2.055 2.816 25.974 25.974 0 0 0-1.406 3.372c-.082.21-.42.2-.389-.053a11.616 11.616 0 0 1 1.239-3.82 25.239 25.239 0 0 1 2.29-3.567c.522-.706 1.089-1.358 1.65-2.03.327-.495.647-.988.943-1.506.406-.71.787-1.438 1.19-2.152.43-.76.864-1.523 1.25-2.31a55.304 55.304 0 0 0 1.995-4.587c.315-.82.58-1.655.865-2.486.138-.404.25-.816.399-1.217.079-.212.147-.435.242-.64l.281-.602a.156.156 0 0 1 .171-.107c.075.01.133.072.136.148l.101.655c.015.188.019.377.011.565a8.88 8.88 0 0 1-.062 1.21c-.08.767-.201 1.53-.362 2.285a30.762 30.762 0 0 1-2.203 6.232c.672-.603 1.35-1.199 1.994-1.833.891-.878 1.715-1.814 2.595-2.706a27.906 27.906 0 0 1 2.588-2.357 5.872 5.872 0 0 1 1.489-.899c.491-.189.994-.349 1.504-.478a19.392 19.392 0 0 1 1.926-.38 5.638 5.638 0 0 1 1.913.058 7.955 7.955 0 0 1 1.581.534 23.906 23.906 0 0 1-.23-3.902 57.44 57.44 0 0 1 1.019-7.362c.483-2.606 1.04-5.184 1.631-7.771.146-.605.239-1.223.277-1.845a8.433 8.433 0 0 1-2.539 1.937c-1.083.37-3.28-.719-4.019-1.086l-.168-.082c-.886-.424-4.646-3.638-2.852-2.615a21.451 21.451 0 0 0 5.004 2.385c1.93.577 4.728-2.196 5.348-4.028.161-.612.273-1.238.461-1.846zM104.377 203.09c.774-.173 1.422-.627 2.18-.842.348-.099.493.343.36.584a3.027 3.027 0 0 1-2.364 1.352 3.447 3.447 0 0 1-2.678-.49c-.13-.135-.108-.366.079-.324a5.842 5.842 0 0 0 2.423-.28zM122.622 221.08a5.535 5.535 0 0 1 1.401-2.197.153.153 0 0 1 .254.146c-.298 1.007-.77 1.948-1.073 2.952a26.788 26.788 0 0 0-.66 3.095l-.043.111-.17.99a16.18 16.18 0 0 1-.793 2.41.19.19 0 0 1-.367-.101c.103-1 .148-2.006.136-3.011.026-.973.05-1.95.045-2.923-.006-1.603-.12-3.202-.235-4.801v-.002c-.125-1.75-.25-3.499-.234-5.253.003-1.597.132-3.19.385-4.766.125-.787.311-1.563.555-2.322.241-.725.606-1.394.916-2.09.083-.184.4-.048.325.136a14.305 14.305 0 0 0-.665 2.664 21.942 21.942 0 0 0-.36 2.702 70.49 70.49 0 0 0 .44 9.744 81.2 81.2 0 0 1 .143 2.516z" fill="#ffc72c"/><path d="M112.676 206.476a9.49 9.49 0 0 0 .924-.239c.136-.052.327.194.308.342a2.08 2.08 0 0 1-1.393 1.839c-.978.391-2.339-.438-2.653-.629l-.043-.027c-.115-.068-.149-.248-.057-.267.175-.037 1.599-.553 1.922-.663.332-.112.649-.265.992-.356zM103.879 211.957c.456-.177.919-.277 1.365-.49.155-.075.291.155.136.231-.916.455-1.732 1.134-2.625 1.646-.847.485-1.705.968-2.521 1.504a20.895 20.895 0 0 0-4.545 3.87 27.196 27.196 0 0 0-4.676 9.628c-1.218 3.843-2.378 7.721-3.332 11.638a81.099 81.099 0 0 0-1.998 11.81 32.64 32.64 0 0 0-.237 5.285 5.905 5.905 0 0 0 1.702 3.945c.256.23-.074.618-.356.461a4.64 4.64 0 0 1-1.806-1.713 8.446 8.446 0 0 1-.899-2.508 23.278 23.278 0 0 1-.307-6.225 64.146 64.146 0 0 1 2.122-12.63c1.028-4.02 2.269-7.983 3.719-11.871a23.197 23.197 0 0 1 5.888-9.639 26.018 26.018 0 0 1 4.563-3.156 26.323 26.323 0 0 1 2.471-1.26c.439-.189.89-.354 1.336-.526zM127.275 213.764a7.073 7.073 0 0 1 2.376 1.917 6.557 6.557 0 0 1 .53 6.218 32.618 32.618 0 0 1-2.922 6.164 21.781 21.781 0 0 1-4.243 5.165 7.999 7.999 0 0 1-5.705 2.474.257.257 0 0 1-.18-.435c1.551-1.408 3.387-2.495 4.917-3.938a23.944 23.944 0 0 0 3.658-4.587 29.489 29.489 0 0 0 2.892-5.466 6.8 6.8 0 0 0 .53-2.95 4.243 4.243 0 0 0-.972-2.253 9.286 9.286 0 0 0-1.865-1.64 12.203 12.203 0 0 0-2.18-1.324c-.24-.109-.065-.523.18-.427.981.381 2.032.607 2.984 1.082zM154.47 279.975c.276.302.637.553.73.971a.422.422 0 0 1-.4.526c-.59.028-1.202-.534-1.686-.98a11.626 11.626 0 0 0-.3-.273 13.283 13.283 0 0 1-1.74-1.68c-1.073-1.32-1.983-2.774-2.99-4.145a104.96 104.96 0 0 1-1.506-2.103 22.795 22.795 0 0 0-1.578-2.193l-.247-.279c-2.055-1.75-4.075-3.534-5.977-5.456a98.428 98.428 0 0 1-11.135-13.653c-1.655-2.419-3.243-4.898-4.68-7.453-.69-1.226-1.328-2.48-2.01-3.71a10.189 10.189 0 0 0-2.378-3.057c-.336-.275.095-.695.424-.55 2.875 1.268 4.295 4.492 5.804 7.048a123.19 123.19 0 0 0 9.94 14.47 181.47 181.47 0 0 0 5.747 6.797c.782.88 1.561 1.76 2.35 2.633a35.953 35.953 0 0 1 2.871 2.502c.64.634 1.36 1.175 2.013 1.795a22.757 22.757 0 0 1 1.722 1.82 44.285 44.285 0 0 1 3.067 4.107c.428.648.805 1.327 1.241 1.97.218.314.457.613.718.893zM107.999 238.236a9.687 9.687 0 0 1 2.655-2.104.406.406 0 0 1 .491.638c-.848.997-1.834 1.851-2.699 2.836a28.909 28.909 0 0 0-2.262 2.998c-2.51 3.74-4.552 7.788-7.275 11.384a24.027 24.027 0 0 1-4.51 4.804 17.154 17.154 0 0 1-2.743 1.647c-.486.24-.983.455-1.491.643-.5.185-.982.245-1.489.38a.165.165 0 0 1-.087-.317c.32-.12.6-.325.908-.472l.813-.42c.52-.282 1.019-.599 1.494-.95a29.91 29.91 0 0 0 2.654-2.325 49.174 49.174 0 0 0 7.569-10.576 55.5 55.5 0 0 1 3.829-5.708 32.282 32.282 0 0 1 2.143-2.458z" fill="#ffc72c"/><path d="m137.724 273.136-.077-.183a8.048 8.048 0 0 0-3.593-5.346 63.399 63.399 0 0 0-6.814-3.746 24.349 24.349 0 0 1-8.934-9.406 27.516 27.516 0 0 1-1.533-3.233c-.463-1.18-.967-2.359-1.384-3.553a.344.344 0 0 0-.373-.237.344.344 0 0 0-.296.328 14.16 14.16 0 0 0 .071 1.634c.072.558.186 1.111.31 1.66l.066.274a24.154 24.154 0 0 0-4.421 5.176c-1.389 1.975-2.596 4.08-4.045 6.011a28.122 28.122 0 0 1-11.15 8.881 16.892 16.892 0 0 1-13.569.441 12.324 12.324 0 0 1-4.837-3.806 11.499 11.499 0 0 1-2.19-6.324 15.805 15.805 0 0 1 1.65-7.522 28.075 28.075 0 0 1 1.99-3.255 17.237 17.237 0 0 1 2.558-3.131c.146-.136-.066-.333-.216-.215-.987.782-2.002 1.523-2.91 2.4a16.445 16.445 0 0 0-2.284 2.85 16.053 16.053 0 0 0-2.583 7.05 14.248 14.248 0 0 0 1.145 7.444 12.84 12.84 0 0 0 4.606 5.277c.653.441 1.34.831 2.052 1.168l-.52.442c-.518.456-.991.958-1.507 1.415a9.352 9.352 0 0 1-1.884 1.258 21.539 21.539 0 0 1-4.468 1.503c-1.418.35-2.804.82-4.142 1.405-.388.177-.766.376-1.132.596a5.76 5.76 0 0 0-.88.728 4.88 4.88 0 0 0-1.418 1.722c-.065.162.155.236.26.152a15.323 15.323 0 0 1 1.584-1.32c.278-.165.585-.269.867-.427.333-.184.675-.35 1.025-.499a21.468 21.468 0 0 1 4-1.144 30.136 30.136 0 0 0 4.352-1.152c1.355-.5 2.605-1.25 3.686-2.209.51-.493 1.05-.954 1.618-1.379l.541-.319c1.265.391 2.574.625 3.896.696.327.304.712.542 1.13.698a7.664 7.664 0 0 0 1.738.624c1.258.224 2.543.248 3.809.07a29.348 29.348 0 0 0 7.401-2.247 60.36 60.36 0 0 1 7.445-2.828 21.697 21.697 0 0 1 7.615-.639c1.356.136 2.697.4 4.003.79.668.196 1.329.415 1.985.645.327.114.655.228.977.357.379.132.769.228 1.165.288.701.144 1.355-.732.747-1.282a5.967 5.967 0 0 0-1.604-1.075 16.064 16.064 0 0 0-1.873-.73 20.397 20.397 0 0 0-3.843-.785 21.962 21.962 0 0 0-7.66.45c-5.147 1.242-9.672 4.38-14.923 5.246a19.986 19.986 0 0 1-4.189.265l-.248-.014a26.771 26.771 0 0 0 15.931-9.126 45.231 45.231 0 0 0 4.797-7.204c.68-1.22 1.359-2.444 2.108-3.624.639-1.004 1.357-1.949 2.076-2.895.23.694.511 1.374.806 2.037a24.138 24.138 0 0 0 3.63 5.685l.733.83-.921-.347a43.884 43.884 0 0 0-3.425-1.081 26.378 26.378 0 0 0-1.712-.398c-.645-.128-1.287-.16-1.937-.248-.367-.049-.541.47-.158.574.983.272 1.95.659 2.92.979.975.322 1.937.68 2.887 1.072a48.8 48.8 0 0 1 5.501 2.735c1.794 1.022 3.57 2.062 5.294 3.197a39.027 39.027 0 0 1 4.828 3.544 10.184 10.184 0 0 1 3.337 5.41c.105.547.848.351.9-.12a5.914 5.914 0 0 0-.387-2.958z" fill="#e31c79"/><path d="M144.961 281.393a2.738 2.738 0 0 0 1.91 1.496.297.297 0 0 1 .072.537 1.835 1.835 0 0 1-1.315.247 3.627 3.627 0 0 1-1.317-.602 6.34 6.34 0 0 1-1.823-2.51c-.525-1.065-.954-2.167-1.415-3.259a95.233 95.233 0 0 1-.663-1.624c-.232-.58-.372-1.218-.656-1.773-.117-.228.221-.428.344-.202.284.448.593.88.925 1.294.302.433.594.876.883 1.318.56.855 1.147 1.701 1.675 2.575.492.814.93 1.666 1.38 2.503zM130.05 279.588c2.022-.529 3.962-1.348 5.995-1.827.364-.086.714.396.391.672a16.12 16.12 0 0 1-6.445 2.886 45.663 45.663 0 0 1-7.052 1.203c-4.276.351-8.57.445-12.858.283-4.712-.105-9.422-.153-14.135-.068a305.85 305.85 0 0 0-7.23.217c-2.44.102-4.885.131-7.322.262-2.374.127-4.74.353-7.113.483-1.216.066-2.435.082-3.65.164-1.215.081-2.428.183-3.645.231-.42.017-.516-.659-.1-.738 2.635-.499 5.326-.843 7.987-1.18 2.687-.34 5.406-.448 8.103-.7 4.735-.442 9.504-.557 14.258-.624 4.666-.066 9.327.013 13.992.108 4.224.17 8.455.08 12.668-.272a41.193 41.193 0 0 0 6.155-1.1zM155.8 281.89a.58.58 0 0 1 .566.27 1.19 1.19 0 0 1-.33 1.485c-.184.134-.404.21-.63.217a.695.695 0 0 1-.32-.083c-.072-.032-.144-.065-.23-.079-.205-.034-.138-.33.045-.34.111-.007.262-.34.303-.445.053-.203.092-.41.117-.619a.58.58 0 0 1 .48-.406zM148.091 283.271a.335.335 0 0 1 .284-.169 6.33 6.33 0 0 0 .36-.035c.795-.092 2.276-.264 1.976.712a1.28 1.28 0 0 1-1.488.671 1.669 1.669 0 0 1-1.135-.848.337.337 0 0 1 .003-.33zM153.367 283.11c-.258-.064-.467.04-.684.147-.066.032-.132.065-.2.093a4.371 4.371 0 0 0-.123.055c-.188.088-.435.202-.59.148-.209-.07-.31.23-.144.341.16.105.26.275.43.371.192.095.405.14.62.132.471-.009 1.035-.299 1.054-.81a.499.499 0 0 0-.363-.477z" fill="#ffc72c"/></g></g></g></svg>