<svg xmlns:mydata="http://www.w3.org/2000/svg" mydata:contrastcolor="280071" mydata:template="Contrast" mydata:presentation="2.5" mydata:layouttype="undefined" mydata:specialfontid="undefined" mydata:id1="907" mydata:id2="251" mydata:companyname="Beauty Malagasy" mydata:companytagline="" version="1.1" xmlns="http://www.w3.org/2000/svg" xmlns:xlink="http://www.w3.org/1999/xlink" viewBox="0 0 550 470"><g fill="none" fill-rule="none" stroke="none" stroke-width="1" stroke-linecap="butt" stroke-linejoin="miter" stroke-miterlimit="10" stroke-dasharray="" stroke-dashoffset="0" font-family="none" font-weight="none" font-size="none" text-anchor="none" style="mix-blend-mode: normal"><g data-paper-data="{&quot;isGlobalGroup&quot;:true,&quot;bounds&quot;:{&quot;x&quot;:65.00000000000001,&quot;y&quot;:185.50415908895542,&quot;width&quot;:419.99999999999994,&quot;height&quot;:98.99190247778165}}"><g data-paper-data="{&quot;isSecondaryText&quot;:true}" fill="#e31c79" fill-rule="nonzero"><path d="M189.68923,261.26062c0.66383,-0.2276 1.46042,-0.45045 2.38978,-0.66857c0.92936,-0.21811 2.10528,-0.32717 3.52777,-0.32717c0.77763,0 1.54577,0.06164 2.30443,0.18492c0.75866,0.12328 1.46042,0.37459 2.10528,0.75392c0.49313,-0.24656 1.07161,-0.46468 1.73544,-0.65434c0.66383,-0.18967 1.41301,-0.2845 2.24753,-0.2845c0.73969,0 1.5031,0.07112 2.29021,0.21337c0.78711,0.14225 1.49835,0.44097 2.13373,0.89617c0.63538,0.4552 1.15696,1.10954 1.56474,1.96303c0.40778,0.85349 0.61167,1.982 0.61167,3.38552v8.50648c-0.49313,0.09483 -0.93884,0.15647 -1.33714,0.18492c-0.3983,0.02845 -0.74918,0.04267 -1.05264,0.04267c-0.32243,0 -0.68279,-0.01422 -1.08109,-0.04267c-0.3983,-0.02845 -0.84401,-0.09009 -1.33714,-0.18492v-7.99438c0,-1.00523 -0.1707,-1.72595 -0.5121,-2.16218c-0.3414,-0.43623 -0.90091,-0.65434 -1.67854,-0.65434c-0.26553,0 -0.52632,0.02845 -0.78237,0.08535c-0.25605,0.0569 -0.43149,0.10432 -0.52632,0.14225c0.1707,0.66383 0.25605,1.42249 0.25605,2.27598v8.30733c-0.49313,0.09483 -0.93884,0.15647 -1.33714,0.18492c-0.3983,0.02845 -0.74918,0.04267 -1.05264,0.04267c-0.32243,0 -0.68279,-0.01422 -1.08109,-0.04267c-0.3983,-0.02845 -0.84401,-0.09009 -1.33714,-0.18492v-7.99438c0,-1.00523 -0.16122,-1.72595 -0.48365,-2.16218c-0.32243,-0.43623 -0.87246,-0.65434 -1.65009,-0.65434c-0.20863,0 -0.43149,0.01897 -0.66857,0.0569c-0.23708,0.03793 -0.38407,0.07587 -0.44097,0.1138v10.64021c-0.49313,0.09483 -0.93884,0.15647 -1.33714,0.18492c-0.3983,0.02845 -0.74918,0.04267 -1.05264,0.04267c-0.32243,0 -0.68279,-0.01422 -1.08109,-0.04267c-0.3983,-0.02845 -0.84401,-0.09009 -1.33714,-0.18492z" data-paper-data="{&quot;glyphName&quot;:&quot;m&quot;,&quot;glyphIndex&quot;:0,&quot;firstGlyphOfWord&quot;:true,&quot;word&quot;:1}"></path><path d="M246.15837,265.72723c-0.01897,-0.3414 -0.1138,-0.62589 -0.2845,-0.85349c-0.1707,-0.2276 -0.38881,-0.40304 -0.65434,-0.52632c-0.26553,-0.12328 -0.55951,-0.20863 -0.88194,-0.25605c-0.32243,-0.04742 -0.65434,-0.07112 -0.99574,-0.07112c-0.4552,0 -0.98626,0.05216 -1.59319,0.15647c-0.60693,0.10432 -1.23282,0.27027 -1.87768,0.49787c-0.1707,-0.32243 -0.31769,-0.61641 -0.44097,-0.88194c-0.12328,-0.26553 -0.21811,-0.5358 -0.2845,-0.81082c-0.06638,-0.27501 -0.1138,-0.55951 -0.14225,-0.85349c-0.02845,-0.29398 -0.04267,-0.63064 -0.04267,-1.00997c0.91039,-0.30346 1.81604,-0.53106 2.71695,-0.68279c0.90091,-0.15173 1.71173,-0.2276 2.43246,-0.2276c0.98626,0 1.87768,0.11854 2.67428,0.35562c0.79659,0.23708 1.47465,0.60219 2.03416,1.09532c0.55951,0.49313 0.991,1.12377 1.29446,1.89191c0.30346,0.76814 0.4552,1.68328 0.4552,2.7454v8.33578c-0.72073,0.20863 -1.59319,0.41726 -2.61738,0.62589c-1.02419,0.20863 -2.10528,0.31295 -3.24327,0.31295c-0.98626,0 -1.89191,-0.09009 -2.71695,-0.27027c-0.82504,-0.18018 -1.53155,-0.46942 -2.11951,-0.86772c-0.58796,-0.3983 -1.0479,-0.92462 -1.37981,-1.57896c-0.33191,-0.65434 -0.49787,-1.45568 -0.49787,-2.40401c0,-0.92936 0.19915,-1.6975 0.59745,-2.30443c0.3983,-0.60693 0.91039,-1.09057 1.53629,-1.45094c0.62589,-0.36036 1.31817,-0.61167 2.07683,-0.75392c0.75866,-0.14225 1.49835,-0.21337 2.21908,-0.21337zM246.15837,268.74291h-1.62164c-0.66383,0 -1.22334,0.14225 -1.67854,0.42675c-0.4552,0.2845 -0.68279,0.68279 -0.68279,1.19489c0,0.37933 0.08535,0.67805 0.25605,0.89617c0.1707,0.21811 0.38407,0.38407 0.64012,0.49787c0.25605,0.1138 0.53106,0.18967 0.82504,0.2276c0.29398,0.03793 0.56425,0.0569 0.81082,0.0569c0.1707,0 0.41726,-0.01897 0.73969,-0.0569c0.32243,-0.03793 0.55951,-0.07587 0.71124,-0.1138z" data-paper-data="{&quot;glyphName&quot;:&quot;a&quot;,&quot;glyphIndex&quot;:1,&quot;word&quot;:1}"></path><path d="M275.26985,260.54938c0.41726,-0.09483 0.82978,-0.16122 1.23756,-0.19915c0.40778,-0.03793 0.80134,-0.0569 1.18067,-0.0569c0.36036,0 0.74918,0.01897 1.16644,0.0569c0.41726,0.03793 0.82504,0.10432 1.22334,0.19915l-0.02845,10.69711h5.37701c0.09483,0.37933 0.15647,0.73021 0.18492,1.05264c0.02845,0.32243 0.04267,0.63538 0.04267,0.93884c0,0.30346 -0.01422,0.62115 -0.04267,0.95307c-0.02845,0.33191 -0.09009,0.68754 -0.18492,1.06687h-10.18502z" data-paper-data="{&quot;glyphName&quot;:&quot;l&quot;,&quot;glyphIndex&quot;:2,&quot;word&quot;:1}"></path><path d="M315.37514,265.72723c-0.01897,-0.3414 -0.1138,-0.62589 -0.2845,-0.85349c-0.1707,-0.2276 -0.38881,-0.40304 -0.65434,-0.52632c-0.26553,-0.12328 -0.55951,-0.20863 -0.88194,-0.25605c-0.32243,-0.04742 -0.65434,-0.07112 -0.99574,-0.07112c-0.4552,0 -0.98626,0.05216 -1.59319,0.15647c-0.60693,0.10432 -1.23282,0.27027 -1.87768,0.49787c-0.1707,-0.32243 -0.31769,-0.61641 -0.44097,-0.88194c-0.12328,-0.26553 -0.21811,-0.5358 -0.2845,-0.81082c-0.06638,-0.27501 -0.1138,-0.55951 -0.14225,-0.85349c-0.02845,-0.29398 -0.04267,-0.63064 -0.04267,-1.00997c0.91039,-0.30346 1.81604,-0.53106 2.71695,-0.68279c0.90091,-0.15173 1.71173,-0.2276 2.43246,-0.2276c0.98626,0 1.87768,0.11854 2.67428,0.35562c0.79659,0.23708 1.47465,0.60219 2.03416,1.09532c0.55951,0.49313 0.991,1.12377 1.29446,1.89191c0.30346,0.76814 0.4552,1.68328 0.4552,2.7454v8.33578c-0.72073,0.20863 -1.59319,0.41726 -2.61738,0.62589c-1.02419,0.20863 -2.10528,0.31295 -3.24327,0.31295c-0.98626,0 -1.89191,-0.09009 -2.71695,-0.27027c-0.82504,-0.18018 -1.53155,-0.46942 -2.11951,-0.86772c-0.58796,-0.3983 -1.0479,-0.92462 -1.37981,-1.57896c-0.33191,-0.65434 -0.49787,-1.45568 -0.49787,-2.40401c0,-0.92936 0.19915,-1.6975 0.59745,-2.30443c0.3983,-0.60693 0.91039,-1.09057 1.53629,-1.45094c0.62589,-0.36036 1.31817,-0.61167 2.07683,-0.75392c0.75866,-0.14225 1.49835,-0.21337 2.21908,-0.21337zM315.37514,268.74291h-1.62164c-0.66383,0 -1.22334,0.14225 -1.67854,0.42675c-0.4552,0.2845 -0.68279,0.68279 -0.68279,1.19489c0,0.37933 0.08535,0.67805 0.25605,0.89617c0.1707,0.21811 0.38407,0.38407 0.64012,0.49787c0.25605,0.1138 0.53106,0.18967 0.82504,0.2276c0.29398,0.03793 0.56425,0.0569 0.81082,0.0569c0.1707,0 0.41726,-0.01897 0.73969,-0.0569c0.32243,-0.03793 0.55951,-0.07587 0.71124,-0.1138z" data-paper-data="{&quot;glyphName&quot;:&quot;a&quot;,&quot;glyphIndex&quot;:3,&quot;word&quot;:1}"></path><path d="M352.93476,271.50254v-4.18212c0.47416,-0.09483 0.89617,-0.16122 1.26601,-0.19915c0.36985,-0.03793 0.72547,-0.0569 1.06687,-0.0569c0.66383,0 1.45094,0.08535 2.36133,0.25605v7.22624c-0.55003,0.20863 -1.31817,0.43623 -2.30443,0.68279c-0.98626,0.24656 -2.13373,0.36985 -3.44242,0.36985c-1.36559,0 -2.52729,-0.20389 -3.4851,-0.61167c-0.95781,-0.40778 -1.74018,-0.96255 -2.34711,-1.66431c-0.60693,-0.70176 -1.0479,-1.5268 -1.32291,-2.47513c-0.27501,-0.94833 -0.41252,-1.96303 -0.41252,-3.04413c0,-1.04316 0.16596,-2.02942 0.49787,-2.95878c0.33191,-0.92936 0.82504,-1.73544 1.47939,-2.41823c0.65434,-0.68279 1.46516,-1.22334 2.43246,-1.62164c0.96729,-0.3983 2.08632,-0.59745 3.35707,-0.59745c0.66383,0 1.39404,0.07587 2.19063,0.2276c0.79659,0.15173 1.66905,0.41726 2.61738,0.79659c-0.01897,0.32243 -0.0569,0.62589 -0.1138,0.91039c-0.0569,0.2845 -0.12802,0.57374 -0.21337,0.86772c-0.08535,0.29398 -0.18967,0.60693 -0.31295,0.93884c-0.12328,0.33191 -0.27027,0.7065 -0.44097,1.12377c-0.64486,-0.26553 -1.24231,-0.45994 -1.79234,-0.58322c-0.55003,-0.12328 -1.02419,-0.18492 -1.42249,-0.18492c-0.62589,0 -1.15696,0.09483 -1.59319,0.2845c-0.43623,0.18967 -0.78711,0.44571 -1.05264,0.76814c-0.26553,0.32243 -0.45994,0.69702 -0.58322,1.12377c-0.12328,0.42675 -0.18492,0.86772 -0.18492,1.32291c0,1.27076 0.27501,2.20486 0.82504,2.8023c0.55003,0.59745 1.35611,0.89617 2.41823,0.89617z" data-paper-data="{&quot;glyphName&quot;:&quot;g&quot;,&quot;glyphIndex&quot;:4,&quot;word&quot;:1}"></path><path d="M389.56949,265.72723c-0.01897,-0.3414 -0.1138,-0.62589 -0.2845,-0.85349c-0.1707,-0.2276 -0.38881,-0.40304 -0.65434,-0.52632c-0.26553,-0.12328 -0.55951,-0.20863 -0.88194,-0.25605c-0.32243,-0.04742 -0.65434,-0.07112 -0.99574,-0.07112c-0.4552,0 -0.98626,0.05216 -1.59319,0.15647c-0.60693,0.10432 -1.23282,0.27027 -1.87768,0.49787c-0.1707,-0.32243 -0.31769,-0.61641 -0.44097,-0.88194c-0.12328,-0.26553 -0.21811,-0.5358 -0.2845,-0.81082c-0.06638,-0.27501 -0.1138,-0.55951 -0.14225,-0.85349c-0.02845,-0.29398 -0.04267,-0.63064 -0.04267,-1.00997c0.91039,-0.30346 1.81604,-0.53106 2.71695,-0.68279c0.90091,-0.15173 1.71173,-0.2276 2.43246,-0.2276c0.98626,0 1.87768,0.11854 2.67428,0.35562c0.79659,0.23708 1.47465,0.60219 2.03416,1.09532c0.55951,0.49313 0.991,1.12377 1.29446,1.89191c0.30346,0.76814 0.4552,1.68328 0.4552,2.7454v8.33578c-0.72073,0.20863 -1.59319,0.41726 -2.61738,0.62589c-1.02419,0.20863 -2.10528,0.31295 -3.24327,0.31295c-0.98626,0 -1.89191,-0.09009 -2.71695,-0.27027c-0.82504,-0.18018 -1.53155,-0.46942 -2.11951,-0.86772c-0.58796,-0.3983 -1.0479,-0.92462 -1.37981,-1.57896c-0.33191,-0.65434 -0.49787,-1.45568 -0.49787,-2.40401c0,-0.92936 0.19915,-1.6975 0.59745,-2.30443c0.3983,-0.60693 0.91039,-1.09057 1.53629,-1.45094c0.62589,-0.36036 1.31817,-0.61167 2.07683,-0.75392c0.75866,-0.14225 1.49835,-0.21337 2.21908,-0.21337zM389.56949,268.74291h-1.62164c-0.66383,0 -1.22334,0.14225 -1.67854,0.42675c-0.4552,0.2845 -0.68279,0.68279 -0.68279,1.19489c0,0.37933 0.08535,0.67805 0.25605,0.89617c0.1707,0.21811 0.38407,0.38407 0.64012,0.49787c0.25605,0.1138 0.53106,0.18967 0.82504,0.2276c0.29398,0.03793 0.56425,0.0569 0.81082,0.0569c0.1707,0 0.41726,-0.01897 0.73969,-0.0569c0.32243,-0.03793 0.55951,-0.07587 0.71124,-0.1138z" data-paper-data="{&quot;glyphName&quot;:&quot;a&quot;,&quot;glyphIndex&quot;:5,&quot;word&quot;:1}"></path><path d="M421.39068,269.34035c-1.00523,-0.2845 -1.83975,-0.76814 -2.50358,-1.45094c-0.66383,-0.68279 -0.99574,-1.61215 -0.99574,-2.78808c0,-0.73969 0.15173,-1.41301 0.4552,-2.01993c0.30346,-0.60693 0.73021,-1.12377 1.28024,-1.55051c0.55003,-0.42675 1.19963,-0.75392 1.94881,-0.98152c0.74918,-0.2276 1.57896,-0.3414 2.48935,-0.3414c0.72073,0 1.50784,0.07587 2.36133,0.2276c0.85349,0.15173 1.6975,0.36985 2.53203,0.65434c-0.03793,0.60693 -0.16122,1.25653 -0.36985,1.94881c-0.20863,0.69228 -0.44571,1.30395 -0.71124,1.83501c-0.5121,-0.20863 -1.12851,-0.3983 -1.84923,-0.569c-0.72073,-0.1707 -1.38456,-0.25605 -1.99148,-0.25605c-0.89143,0 -1.33714,0.24656 -1.33714,0.73969c0,0.20863 0.10432,0.36985 0.31295,0.48365c0.20863,0.1138 0.44571,0.20863 0.71124,0.2845l1.84923,0.48365c0.569,0.15173 1.08583,0.33666 1.55051,0.55477c0.46468,0.21811 0.86298,0.49787 1.19489,0.83927c0.33191,0.3414 0.5927,0.75866 0.78237,1.25179c0.18967,0.49313 0.2845,1.09057 0.2845,1.79234c0,0.72073 -0.14699,1.39404 -0.44097,2.01993c-0.29398,0.62589 -0.73021,1.16644 -1.30869,1.62164c-0.57848,0.4552 -1.28972,0.81556 -2.13373,1.08109c-0.84401,0.26553 -1.81604,0.3983 -2.9161,0.3983c-0.91039,0 -1.7544,-0.06638 -2.53203,-0.19915c-0.77763,-0.13277 -1.60267,-0.36036 -2.47513,-0.68279c0.09483,-1.28972 0.44571,-2.59841 1.05264,-3.92607c0.60693,0.2845 1.24231,0.49787 1.90613,0.64012c0.66383,0.14225 1.32766,0.21337 1.99148,0.21337c0.2276,0 0.46468,-0.00948 0.71124,-0.02845c0.24656,-0.01897 0.46468,-0.06164 0.65434,-0.12802c0.18967,-0.06638 0.34614,-0.15647 0.46942,-0.27027c0.12328,-0.1138 0.18492,-0.26553 0.18492,-0.4552c0,-0.24656 -0.12328,-0.43149 -0.36985,-0.55477c-0.24656,-0.12328 -0.53106,-0.23234 -0.85349,-0.32717z" data-paper-data="{&quot;glyphName&quot;:&quot;s&quot;,&quot;glyphIndex&quot;:6,&quot;word&quot;:1}"></path><path d="M457.20539,270.08005l-5.46236,-9.53067c0.20863,-0.03793 0.57374,-0.07587 1.09532,-0.1138c0.52158,-0.03793 1.09532,-0.0569 1.72121,-0.0569c0.49313,0 0.97678,0.01897 1.45094,0.0569c0.47416,0.03793 0.78711,0.07587 0.93884,0.1138l2.78808,5.6046l2.78808,-5.6046c0.15173,-0.03793 0.44097,-0.07587 0.86772,-0.1138c0.42675,-0.03793 0.88668,-0.0569 1.37981,-0.0569c0.62589,0 1.18541,0.01897 1.67854,0.0569c0.49313,0.03793 0.84401,0.07587 1.05264,0.1138l-5.4908,9.53067v5.14941c-0.49313,0.07587 -0.93884,0.13277 -1.33714,0.1707c-0.3983,0.03793 -0.75866,0.0569 -1.08109,0.0569c-0.32243,0 -0.68279,-0.01897 -1.08109,-0.0569c-0.3983,-0.03793 -0.83453,-0.09483 -1.30869,-0.1707z" data-paper-data="{&quot;glyphName&quot;:&quot;y&quot;,&quot;glyphIndex&quot;:7,&quot;lastGlyphOfWord&quot;:true,&quot;word&quot;:1}"></path></g><g data-paper-data="{&quot;isPrimaryText&quot;:true}" fill="#ffc72c" fill-rule="nonzero"><path d="M198.89096,233.54739c4.89283,1.36029 10.58878,2.3658 15.29952,4.14834c6.24043,2.44381 4.34019,3.22719 -1.54488,1.357c-3.38299,-1.08454 -6.96213,-2.47828 -10.14703,-3.40181c-1.47946,-0.4752 -2.75324,-0.76468 -3.77156,-0.84586c0.05862,-0.41182 0.11237,-0.83282 0.16396,-1.25768zM216.78951,207.68891c-1.81384,3.04997 -5.04103,5.84051 -7.68599,8.15994c-3.34614,2.92967 -6.78479,5.62123 -9.69893,8.53139c-0.0161,-3.69468 -0.29231,-7.16702 -0.77012,-10.20769c3.91273,-1.64002 8.11753,-3.47857 12.33323,-4.92538c2.05626,-0.69188 3.89799,-1.27707 5.82181,-1.55826zM230.39822,205.41132c-0.35909,-6.86178 -5.54208,-11.38781 -12.70128,-10.98586c-4.52966,0.19162 -8.36256,1.69047 -11.45641,3.12288c-4.20787,1.9177 -7.60696,3.99867 -11.03189,6.41039c-0.6946,-0.87931 -1.44726,-1.36222 -2.23541,-1.36789c-1.87847,-0.01304 -3.59309,2.68498 -4.82412,7.01633c-1.77154,1.62698 -4.05673,4.09482 -5.01733,5.60093c-0.76252,1.19259 -1.89808,3.44977 0.5438,3.69933c0.81933,0.08198 2.06227,-0.12677 2.88193,-0.31612c-0.20001,2.08676 -0.31601,4.29983 -0.33199,6.59317c-0.08753,12.51226 2.79326,22.69285 6.43058,22.71825c2.00467,0.01417 3.82247,-3.05995 5.06541,-7.91616c2.50334,3.47574 6.18804,6.47423 10.23729,8.9643c3.82134,2.36807 9.98908,5.54208 16.33632,3.69389c5.30204,-1.57652 9.14379,-7.41511 7.67896,-14.6878c-1.76111,-8.15246 -9.68011,-11.73217 -18.20084,-12.70207c5.59379,-2.78692 11.28656,-6.53466 14.59516,-12.1416c1.14724,-1.91951 2.14379,-4.55313 2.02984,-7.70197z" data-paper-data="{&quot;glyphName&quot;:&quot;B&quot;,&quot;glyphIndex&quot;:0,&quot;firstGlyphOfWord&quot;:true,&quot;word&quot;:1}"></path><path d="M264.76481,213.24562c10.54524,-1.02898 19.52462,-5.01722 19.09636,-8.79161c-0.33324,-2.93658 -6.22864,-4.78648 -14.04411,-4.73976c-1.80363,0.01077 -3.70954,0.12257 -5.67282,0.34537c-10.4441,1.18511 -18.61413,5.08321 -18.2039,8.6975c0.25138,2.21488 3.66758,3.81136 8.67845,4.44303c-0.81116,2.98171 -1.40599,6.62832 -1.68446,10.63255c-3.81249,1.93108 -6.09869,4.4233 -5.66851,6.67311c0.35807,1.87325 2.52885,3.2078 5.70173,3.82655c0.25262,3.19204 0.72431,6.05946 1.3663,8.40667c-5.67917,2.2277 -9.30298,5.23662 -8.79694,7.77851c0.71025,3.56746 9.28552,4.87027 19.11054,2.91402c9.85064,-1.96135 17.27289,-6.44928 16.56264,-10.01664c-0.65288,-3.27935 -7.95233,-4.64452 -16.77887,-3.31994c0.46012,-1.93323 0.83282,-4.1031 1.09803,-6.43534c7.21657,-1.83039 12.32971,-5.61238 11.7045,-8.88278c-0.54641,-2.85801 -5.31214,-4.46106 -11.43271,-4.17907c-0.19718,-2.71446 -0.5523,-5.20465 -1.03623,-7.35218z" data-paper-data="{&quot;glyphName&quot;:&quot;E&quot;,&quot;glyphIndex&quot;:1,&quot;word&quot;:1}"></path><path d="M322.14366,217.84569c0.69007,3.22152 1.14327,5.42042 1.85976,8.7424c-1.90704,-0.09116 -3.98098,-0.10046 -6.00731,-0.01973c1.31868,-2.74802 2.76821,-5.82838 4.14755,-8.72267zM311.38638,239.55696c5.05724,0.4091 11.02759,0.13459 15.5721,-0.58156c0.77171,2.7834 1.99174,6.48217 2.99441,8.28671c1.43139,2.59076 2.77478,2.57794 3.76838,-0.33143c0.78633,-2.32033 1.2477,-6.52968 1.41744,-10.03319c6.51029,-2.55085 6.85679,-6.20652 0.0779,-8.48286c-0.20897,-8.46019 -0.9004,-16.98069 -2.96924,-24.13354c-0.65208,-2.34618 -1.62539,-4.56039 -3.3052,-6.28306c-1.13613,-1.39147 -4.85281,-2.73691 -7.61535,-1.717c-3.85433,1.62017 -5.36951,4.59633 -7.11996,8.06243c-3.74764,7.38415 -6.5282,15.62562 -8.81815,24.0138c-5.05464,1.37356 -8.2807,3.37029 -8.21051,5.49197c0.05771,1.73685 2.31455,3.2442 5.94823,4.30232c-0.68202,3.78766 -2.06419,14.73542 2.78794,9.62761c1.7,-1.78935 3.9396,-5.47314 5.47201,-8.22219z" data-paper-data="{&quot;glyphName&quot;:&quot;A&quot;,&quot;glyphIndex&quot;:2,&quot;word&quot;:1}"></path><path d="M379.47387,211.59687c-0.42134,1.07717 -0.78713,2.58747 -1.1367,4.45188c-1.15812,6.20947 -1.83992,13.3393 -3.71804,19.14603c-0.58076,1.74739 -1.2223,3.42891 -2.05875,4.74067c-0.91729,1.45554 -1.80193,2.64983 -3.96182,2.75052c-0.26192,-0.01757 -0.52815,-0.02619 -0.51421,-0.04173c-0.39027,-0.45026 -0.59131,-0.94496 -0.87874,-1.75522c-1.17853,-3.47086 -1.19021,-8.68628 -1.10234,-13.18033c0.05896,-2.83363 0.20478,-5.70434 0.32315,-8.15903c0.21872,-4.51027 0.62997,-9.25786 -0.01191,-12.9751c-0.49958,-3.11086 -1.91611,-3.25826 -3.8066,-1.0732c-0.91514,1.08306 -1.93618,2.73963 -2.98568,4.90803c-2.14198,4.42035 -4.00922,10.0595 -5.15986,15.9965c-0.53734,2.74972 -0.95686,5.83598 -1.05279,9.15898c-0.28165,9.88647 2.88035,17.46973 10.30112,20.00855c3.54535,1.13182 7.11838,0.93555 10.48243,-0.24786c10.93121,-3.94844 14.65231,-18.33293 12.27778,-33.26792c-0.66081,-4.16694 -1.7424,-8.32004 -3.43537,-10.88574c-1.41506,-2.09277 -2.66559,-1.94242 -3.56168,0.42497z" data-paper-data="{&quot;glyphName&quot;:&quot;U&quot;,&quot;glyphIndex&quot;:3,&quot;word&quot;:1}"></path><path d="M420.20198,196.67799c-10.66713,-0.11452 -19.70638,2.82014 -19.76647,6.61676c-0.05125,3.24488 6.45337,6.03202 15.18432,6.81495c-1.33762,4.63964 -2.2853,10.95967 -2.53905,17.94368c-0.5252,14.45457 2.1032,26.34116 5.86693,26.52519c3.76385,0.18403 7.24469,-11.40391 7.76989,-25.85871c0.26215,-7.21645 -0.26532,-13.79919 -1.32979,-18.59735c8.25734,-0.72703 14.3439,-3.295 14.39311,-6.413c0.05964,-3.76691 -8.71428,-6.91689 -19.57893,-7.03152z" data-paper-data="{&quot;glyphName&quot;:&quot;T&quot;,&quot;glyphIndex&quot;:4,&quot;word&quot;:1}"></path><path d="M467.69637,244.48094c0.00704,0 0.01453,-0.00251 0.02249,-0.00449c0.3049,-0.10987 0.9021,-0.16997 1.33659,-0.07415c-0.49913,0.05276 -0.94949,0.07865 -1.35908,0.07865zM455.35116,208.15289c-1.54919,4.86664 -3.03228,14.15216 -1.90307,21.31397c0.69766,4.46129 3.01539,9.17089 8.56529,9.1193c3.5796,-0.06531 5.93905,-2.10014 7.60605,-4.15084c-0.43631,3.27368 -0.88441,6.87357 -1.90409,9.5657c-0.0609,0.16517 -0.1886,0.45368 -0.06107,0.47972c-1.76905,-0.01244 -2.77206,-0.55148 -3.6657,-1.76938c-0.26657,-0.3693 -0.55378,-0.84291 -1.03487,-0.93668c-0.64948,-0.12665 -0.99587,0.35127 -1.27809,0.81536c-1.26176,2.06442 -0.32304,4.82979 1.3917,6.48568c0.64142,0.61875 1.39034,1.1596 2.21205,1.57471c1.38932,0.70878 3.11608,1.50667 5.13605,1.00675c3.00292,-0.79325 4.79782,-3.3526 6.10709,-5.7252c3.1188,-5.56374 4.88603,-12.37348 6.29054,-19.61533c1.1791,-6.06967 2.18654,-12.56952 2.18654,-19.75173c0.03368,-6.06989 -1.90182,-11.43634 -8.27559,-10.85943c-1.83504,0.37145 -3.01085,0.84087 -3.52245,1.3815c-1.93913,1.53502 -2.90166,3.3238 -3.85637,5.55421c-2.55402,5.93156 -4.42126,12.46816 -6.73094,18.5317c-0.83123,-4.46752 -1.38626,-9.50345 -2.11635,-12.74448c-1.31222,-6.28839 -3.21688,-6.02987 -5.14671,-0.27553z" data-paper-data="{&quot;glyphName&quot;:&quot;Y&quot;,&quot;glyphIndex&quot;:5,&quot;lastGlyphOfWord&quot;:true,&quot;word&quot;:1}"></path></g><g data-paper-data="{&quot;isIcon&quot;:&quot;true&quot;,&quot;iconType&quot;:&quot;icon&quot;,&quot;rawIconId&quot;:&quot;2760084&quot;,&quot;selectedEffects&quot;:{&quot;container&quot;:&quot;&quot;,&quot;transformation&quot;:&quot;&quot;,&quot;pattern&quot;:&quot;&quot;},&quot;isDetailed&quot;:false,&quot;fillRule&quot;:&quot;evenodd&quot;,&quot;bounds&quot;:{&quot;x&quot;:65.00000000000001,&quot;y&quot;:185.50415908895542,&quot;width&quot;:91.49769190672104,&quot;height&quot;:98.99190247778165},&quot;iconStyle&quot;:&quot;standalone&quot;,&quot;suitableAsStandaloneIcon&quot;:true}" fill-rule="evenodd"><g data-paper-data="{&quot;isPathIcon&quot;:true}"><path d="M100.78503,187.70196c2.188,-1.741 4.99801,-2.497 7.76401,-2.09c5.99401,0.94 10.37802,6.15601 10.27202,12.22202c0.135,1.297 0.116,1.603 -0.639,0.006c-2.409,-5.08701 -3.37701,-10.29402 -10.50802,-10.52402c-2.322,-0.214 -4.62701,0.548 -6.36301,2.104c-1.4358,1.628 -2.3519,3.64801 -2.6302,5.80101c-0.0863,1.262 -0.0113,2.53 0.2233,3.77301c0.204,1.237 -0.3902,0.439 -0.7097,-0.58c-0.4261,-1.376 -0.6375,-2.80901 -0.6269,-4.25001c0.2718,-2.467 1.4122,-4.75801 3.21751,-6.46201z" fill="#ffc72c"></path><path d="M124.84708,197.91598c-0.038,-1.409 -0.646,-2.74201 -1.685,-3.69501c-0.951,-0.867 -2.108,-1.483 -3.13301,-2.256c-1.183,-0.851 -2.295,-1.797 -3.32501,-2.82901c-0.073,-0.08 -0.197,-0.089 -0.281,-0.019c-0.084,0.069 -0.098,0.192 -0.032,0.279c0.701,1.114 1.492,2.169 2.362,3.15701c0.842,0.9 1.788,1.673 2.67701,2.524c0.818,0.76 1.356,1.774 1.525,2.87801c0.149,0.627 0.225,1.269 0.226,1.914c-0.074,0.653 -0.046,1.313 0.083,1.957c0.022,0.105 0.104,0.188 0.209,0.212c0.106,0.024 0.215,-0.016 0.281,-0.101c0.401,-0.581 0.666,-1.245 0.774,-1.943c0.183,-0.679 0.29,-1.376 0.319,-2.078z" fill="#ffc72c"></path><path d="M114.43906,199.37298c1.54,0.289 2.93501,1.095 3.95401,2.285c0.197,0.26 -0.12,0.515 -0.391,0.401c-1.587,-0.597 -3.24201,-0.996 -4.92701,-1.188c-1.747,-0.201 -3.42101,-0.819 -4.87801,-1.802c-1.346,-1.033 -2.494,-2.3 -3.38901,-3.74101l-0.058,-0.115c-0.094,0.269 -0.223,0.525 -0.383,0.76c-0.56,0.615 -1.174,1.177 -1.835,1.682c-0.714,0.663 -1.174,1.555 -1.3,2.521c-0.025,0.148 -0.232,0.198 -0.248,0.041c-0.067,-0.722 0.09,-1.448 0.451,-2.076c0.374,-0.72 0.807,-1.387 1.148,-2.139c0.368,-0.704 0.629,-1.458 0.775,-2.238c0.012,-1.07 -0.103,-2.138 -0.343,-3.18001c-0.116,-0.692 0.18,-0.453 0.324,-0.337c0.621,0.611 1.156,1.304 1.589,2.059c0.509,0.705 0.961,1.433 1.521,2.098c0.905,1.239 1.996,2.33 3.23501,3.23501c1.489,0.814 3.09201,1.398 4.75501,1.734z" fill="#ffc72c"></path><path d="M117.69906,205.35799c0.552,-1.943 1.583,-3.71601 3.00001,-5.15601c0.134,-0.136 0.298,0.055 0.187,0.205c-0.712,0.943 -1.243,2.008 -1.568,3.14401c-0.309,1.078 -0.556,2.143 -0.756,3.23301c-0.891,4.86701 -1.654,9.73802 -2.34,14.64403c-0.361,2.25 -0.589,4.52001 -0.684,6.79701c-0.02,1.066 0.06,2.132 0.24,3.18401c0.048,0.292 0.128,0.581 0.209,0.872c0.201,0.727 0.403,1.459 0.119,2.24c-0.011,0.031 -0.021,0.062 -0.031,0.093c-0.077,0.237 -0.136,0.418 -0.644,0.184c-1.234,-0.569 -2.89301,-1.772 -4.19901,-2.284c-0.659,-0.282 -1.37,-0.424 -2.086,-0.416c-0.618,0.029 -1.21,0.251 -1.693,0.636c-0.454,0.306 -0.862,0.626 -1.273,0.964c-0.399,0.342 -0.773,0.711 -1.119,1.106c-0.726,0.793 -1.362,1.656 -2.071,2.463c-1.708,1.876 -3.55291,3.62501 -5.51851,5.23001c-0.9913,0.839 -1.9696,1.683 -2.96261,2.522c-0.1966,0.166 -0.3943,0.31 -0.5854,0.497c-0.1911,0.187 -0.3768,0.413 -0.5791,0.602c-0.298,0.28 -0.6368,0.52 -0.9477,0.789c-0.1815,0.161 -0.3505,0.335 -0.5055,0.521c-0.7733,0.871 -1.4615,1.814 -2.055,2.81601c-0.5473,1.09 -1.0172,2.216 -1.4062,3.37201c-0.0818,0.21 -0.4206,0.2 -0.3886,-0.053c0.1877,-1.335 0.6069,-2.628 1.2384,-3.82001c0.6617,-1.251 1.4276,-2.444 2.2896,-3.56701c0.5222,-0.706 1.0896,-1.358 1.6499,-2.03c0.3281,-0.495 0.6473,-0.988 0.9438,-1.506c0.406,-0.71 0.7867,-1.438 1.1906,-2.152c0.4301,-0.761 0.8637,-1.523 1.2498,-2.31c0.7358,-1.498 1.397,-3.02801 1.9948,-4.58701c0.3142,-0.82 0.5803,-1.655 0.8642,-2.486c0.1382,-0.404 0.2496,-0.816 0.3993,-1.217c0.0787,-0.212 0.1472,-0.435 0.2422,-0.64l0.281,-0.602c0.023,-0.072 0.095,-0.118 0.171,-0.107c0.075,0.01 0.133,0.072 0.136,0.148l0.101,0.655c0.015,0.188 0.019,0.377 0.011,0.565c0.007,0.404 -0.014,0.808 -0.062,1.209c-0.08,0.768 -0.201,1.531 -0.362,2.286c-0.5086,2.151 -1.247,4.24001 -2.203,6.23201c0.6716,-0.603 1.3505,-1.199 1.994,-1.833c0.891,-0.878 1.715,-1.814 2.595,-2.70601c0.812,-0.839 1.677,-1.626 2.588,-2.357c0.449,-0.372 0.951,-0.675 1.489,-0.899c0.491,-0.189 0.994,-0.349 1.504,-0.478c0.635,-0.159 1.278,-0.286 1.926,-0.38c0.637,-0.09 1.284,-0.07 1.913,0.058c0.544,0.122 1.074,0.301 1.581,0.534c-0.183,-1.292 -0.26,-2.597 -0.23,-3.90201c0.18,-2.473 0.521,-4.93201 1.019,-7.36201c0.483,-2.606 1.04,-5.18401 1.631,-7.77101c0.146,-0.605 0.239,-1.223 0.277,-1.845c-0.716,0.802 -1.577,1.459 -2.539,1.937c-1.083,0.37 -3.28001,-0.719 -4.01901,-1.086c-0.07,-0.034 -0.126,-0.062 -0.168,-0.082c-0.886,-0.424 -4.64601,-3.63801 -2.85201,-2.615c1.558,1.008 3.24001,1.81 5.00401,2.385c1.93,0.577 4.72801,-2.196 5.34801,-4.02801c0.161,-0.612 0.273,-1.238 0.461,-1.846z" fill="#ffc72c"></path><path d="M104.37704,203.08999c0.774,-0.173 1.422,-0.627 2.18,-0.842c0.348,-0.099 0.493,0.343 0.36,0.584c-0.529,0.8 -1.407,1.301 -2.364,1.352c-0.922,0.211 -1.89,0.034 -2.67801,-0.49c-0.13,-0.135 -0.108,-0.366 0.079,-0.324c0.818,0.078 1.644,-0.017 2.423,-0.28z" fill="#ffc72c"></path><path d="M122.62207,221.08002c0.286,-0.834 0.766,-1.587 1.401,-2.197c0.049,-0.047 0.123,-0.057 0.182,-0.023c0.059,0.034 0.089,0.103 0.072,0.169c-0.298,1.007 -0.77,1.948 -1.073,2.95201c-0.281,1.018 -0.502,2.051 -0.661,3.09501l-0.042,0.111l-0.17,0.99c-0.201,0.823 -0.466,1.629 -0.793,2.41c-0.034,0.094 -0.134,0.145 -0.23,0.119c-0.096,-0.027 -0.156,-0.122 -0.137,-0.22c0.103,-1 0.148,-2.006 0.136,-3.01101c0.026,-0.973 0.049,-1.95 0.045,-2.92301c-0.006,-1.603 -0.12,-3.20201 -0.235,-4.80101v-0.002c-0.125,-1.75 -0.251,-3.49901 -0.234,-5.25301c0.003,-1.597 0.132,-3.19001 0.385,-4.76601c0.125,-0.787 0.311,-1.563 0.555,-2.322c0.241,-0.725 0.606,-1.394 0.916,-2.09c0.083,-0.184 0.4,-0.048 0.325,0.136c-0.307,0.865 -0.529,1.757 -0.665,2.66401c-0.176,0.892 -0.297,1.795 -0.361,2.70201c-0.078,3.25401 0.069,6.51001 0.441,9.74402c0.058,0.838 0.111,1.676 0.143,2.516z" fill="#ffc72c"></path><path d="M112.67605,206.476c0.312,-0.064 0.62,-0.144 0.924,-0.239c0.136,-0.052 0.327,0.194 0.308,0.342c-0.051,0.838 -0.6,1.563 -1.393,1.839c-0.978,0.391 -2.339,-0.438 -2.65301,-0.629l-0.043,-0.027c-0.115,-0.068 -0.149,-0.248 -0.057,-0.267c0.175,-0.037 1.599,-0.553 1.922,-0.663c0.332,-0.112 0.649,-0.265 0.992,-0.356z" fill="#ffc72c"></path><path d="M103.87904,211.95701c0.456,-0.177 0.919,-0.277 1.365,-0.49c0.155,-0.075 0.291,0.155 0.136,0.231c-0.916,0.455 -1.732,1.134 -2.625,1.646c-0.847,0.485 -1.705,0.968 -2.521,1.504c-1.6926,1.066 -3.22351,2.369 -4.54551,3.87001c-2.1808,2.86801 -3.77001,6.14101 -4.67511,9.62802c-1.2183,3.84301 -2.3787,7.72101 -3.33281,11.63802c-0.9562,3.88201 -1.6239,7.83001 -1.9978,11.81002c-0.2217,1.752 -0.3008,3.52001 -0.2365,5.28501c0.0516,1.482 0.659,2.89001 1.7013,3.94501c0.2568,0.23 -0.0736,0.618 -0.356,0.461c-0.7466,-0.396 -1.3709,-0.988 -1.8056,-1.713c-0.4304,-0.783 -0.7339,-1.63 -0.8989,-2.508c-0.3809,-2.052 -0.4842,-4.14601 -0.307,-6.22501c0.2841,-4.27101 0.9947,-8.50202 2.1215,-12.63102c1.0279,-4.02001 2.2694,-7.98202 3.71921,-11.87002c1.1385,-3.64901 3.16141,-6.96001 5.88861,-9.63902c1.4038,-1.211 2.93351,-2.27 4.56261,-3.15601c0.801,-0.463 1.626,-0.884 2.471,-1.26c0.439,-0.189 0.89,-0.354 1.336,-0.526z" fill="#ffc72c"></path><path d="M127.27508,213.76401c0.922,0.458 1.733,1.113 2.376,1.917c1.215,1.85 1.414,4.18901 0.53,6.21801c-0.756,2.151 -1.735,4.21701 -2.92201,6.16401c-1.14,1.929 -2.571,3.67201 -4.24301,5.16501c-1.49,1.56 -3.54801,2.453 -5.70501,2.474c-0.102,-0.002 -0.193,-0.065 -0.232,-0.159c-0.039,-0.094 -0.019,-0.202 0.051,-0.276c1.552,-1.408 3.38801,-2.495 4.91801,-3.93801c1.403,-1.373 2.631,-2.91401 3.65801,-4.58701c1.153,-1.715 2.122,-3.54801 2.89201,-5.46601c0.394,-0.932 0.575,-1.94 0.53,-2.95001c-0.095,-0.83 -0.433,-1.614 -0.972,-2.253c-0.545,-0.627 -1.172,-1.179 -1.865,-1.64c-0.678,-0.516 -1.409,-0.96 -2.18,-1.324c-0.241,-0.109 -0.065,-0.523 0.18,-0.427c0.981,0.381 2.032,0.607 2.98401,1.082z" fill="#ffc72c"></path><path d="M154.47013,279.97514c0.276,0.302 0.637,0.553 0.729,0.971c0.032,0.125 0.005,0.257 -0.073,0.36c-0.077,0.102 -0.198,0.163 -0.327,0.166c-0.59,0.028 -1.201,-0.534 -1.685,-0.981c-0.107,-0.099 -0.208,-0.192 -0.301,-0.272c-0.63,-0.506 -1.212,-1.068 -1.74,-1.68c-1.072,-1.321 -1.982,-2.77401 -2.99001,-4.14501c-0.51067,-0.69533 -1.01234,-1.39634 -1.505,-2.103c-0.482,-0.761 -1.009,-1.494 -1.578,-2.193l-0.247,-0.279c-2.055,-1.75 -4.07501,-3.53401 -5.97701,-5.45601c-4.11201,-4.20901 -7.83901,-8.77802 -11.13502,-13.65303c-1.655,-2.419 -3.24301,-4.89801 -4.68101,-7.45301c-0.69,-1.226 -1.327,-2.48 -2.01,-3.71001c-0.59,-1.162 -1.397,-2.2 -2.377,-3.05701c-0.336,-0.275 0.095,-0.695 0.424,-0.55c2.87501,1.268 4.29501,4.49201 5.80401,7.04801c2.96501,5.05401 6.28601,9.88902 9.93902,14.47003c1.86,2.312 3.77601,4.57801 5.74801,6.79701c0.782,0.88 1.561,1.76 2.349,2.633c1.001,0.783 1.96,1.618 2.87201,2.502c0.639,0.634 1.359,1.175 2.013,1.795c0.607,0.574 1.182,1.182 1.722,1.819c1.101,1.309 2.125,2.68101 3.06701,4.10801c0.428,0.648 0.805,1.327 1.241,1.969c0.218,0.315 0.457,0.614 0.718,0.894z" fill="#ffc72c"></path><path d="M107.99905,238.23606c0.755,-0.852 1.653,-1.564 2.65501,-2.104c0.176,-0.1 0.399,-0.056 0.523,0.105c0.124,0.161 0.11,0.388 -0.032,0.533c-0.848,0.997 -1.834,1.851 -2.69901,2.83601c-0.818,0.949 -1.574,1.951 -2.262,2.99801c-2.51,3.74001 -4.55201,7.78801 -7.27461,11.38402c-1.2757,1.801 -2.79341,3.41701 -4.51071,4.80401c-0.8611,0.633 -1.7796,1.185 -2.74321,1.647c-0.4854,0.24 -0.983,0.455 -1.4909,0.643c-0.5005,0.185 -0.9814,0.245 -1.4885,0.38c-0.0866,0.022 -0.1746,-0.03 -0.1985,-0.116c-0.0237,-0.086 0.0256,-0.175 0.1109,-0.201c0.3197,-0.121 0.6002,-0.325 0.9087,-0.472l0.813,-0.421c0.5194,-0.281 1.0186,-0.598 1.494,-0.949c0.9295,-0.722 1.8156,-1.498 2.65421,-2.325c2.97991,-3.17501 5.52531,-6.73101 7.56861,-10.57602c1.157,-1.98 2.436,-3.88601 3.82901,-5.70801c0.672,-0.855 1.388,-1.675 2.143,-2.458z" fill="#ffc72c"></path><path d="M137.7241,273.13612l-0.077,-0.183c-0.401,-2.205 -1.704,-4.14201 -3.59301,-5.34601c-2.193,-1.387 -4.46801,-2.63801 -6.81401,-3.74601c-3.77401,-2.27 -6.86201,-5.52101 -8.93402,-9.40602c-0.581,-1.044 -1.093,-2.124 -1.533,-3.23301c-0.463,-1.18 -0.967,-2.359 -1.384,-3.55301c-0.05,-0.159 -0.208,-0.259 -0.373,-0.237c-0.165,0.023 -0.29,0.161 -0.296,0.328c-0.008,0.545 0.016,1.091 0.071,1.634c0.072,0.558 0.186,1.111 0.309,1.66l0.067,0.274c-1.711,1.508 -3.19901,3.25101 -4.42101,5.17601c-1.389,1.975 -2.596,4.07901 -4.04501,6.01101c-2.89201,3.86901 -6.73231,6.92701 -11.15002,8.88102c-4.26211,2.038 -9.18292,2.198 -13.56863,0.441c-1.9087,-0.839 -3.57291,-2.149 -4.83741,-3.80601c-1.3407,-1.844 -2.103,-4.04601 -2.1896,-6.32401c-0.0786,-2.605 0.4881,-5.18901 1.6499,-7.52201c0.5883,-1.129 1.2528,-2.216 1.9888,-3.25501c0.7267,-1.14 1.5856,-2.191 2.5586,-3.13101c0.1461,-0.136 -0.0656,-0.333 -0.2153,-0.215c-0.987,0.782 -2.0026,1.523 -2.91001,2.4c-0.8649,0.862 -1.6311,1.818 -2.2846,2.85001c-1.4061,2.113 -2.2911,4.52901 -2.5825,7.05001c-0.293,2.539 0.1024,5.11101 1.1447,7.44401c1.0167,2.152 2.6114,3.97901 4.60591,5.27701c0.6535,0.441 1.3396,0.831 2.0526,1.168l-0.5213,0.442c-0.5169,0.456 -0.9902,0.958 -1.5064,1.415c-0.5749,0.494 -1.2076,0.917 -1.884,1.258c-1.43,0.663 -2.92831,1.167 -4.46821,1.503c-1.4179,0.35 -2.80351,0.82 -4.14181,1.405c-0.388,0.177 -0.7656,0.376 -1.1313,0.596c-0.3173,0.213 -0.6126,0.457 -0.8811,0.728c-0.5991,0.457 -1.0843,1.046 -1.4177,1.722c-0.0646,0.162 0.1554,0.236 0.2611,0.152c0.4976,-0.475 1.0267,-0.916 1.5837,-1.32c0.2771,-0.165 0.5846,-0.269 0.867,-0.427c0.3325,-0.184 0.6746,-0.351 1.0249,-0.499c1.2931,-0.51 2.6324,-0.893 3.99921,-1.144c1.4774,-0.275 2.93211,-0.66 4.35201,-1.152c1.3556,-0.5 2.6059,-1.25 3.68651,-2.209c0.51,-0.493 1.0504,-0.954 1.6183,-1.379l0.5407,-0.319c1.2652,0.391 2.5736,0.625 3.89591,0.696c0.3274,0.304 0.7117,0.542 1.1308,0.698c0.5519,0.277 1.1351,0.487 1.7372,0.624c1.258,0.224 2.5435,0.248 3.80901,0.07c2.5554,-0.419 5.04391,-1.175 7.40101,-2.247c2.417,-1.106 4.90401,-2.05 7.44501,-2.82801c2.48,-0.662 5.05901,-0.878 7.61501,-0.639c1.356,0.136 2.69701,0.4 4.00301,0.79c0.668,0.196 1.329,0.415 1.985,0.645c0.327,0.114 0.655,0.228 0.977,0.357c0.379,0.132 0.769,0.228 1.165,0.288c0.701,0.144 1.355,-0.732 0.747,-1.282c-0.473,-0.443 -1.014,-0.806 -1.604,-1.075c-0.608,-0.282 -1.234,-0.526 -1.873,-0.73c-1.253,-0.385 -2.54,-0.647 -3.84301,-0.785c-2.56,-0.301 -5.15301,-0.149 -7.66001,0.449c-5.14701,1.243 -9.67202,4.38101 -14.92333,5.24701c-1.3831,0.235 -2.78701,0.324 -4.18841,0.265l-0.2487,-0.014c6.22021,-1.069 11.86242,-4.30101 15.93143,-9.12602c1.826,-2.243 3.43201,-4.65501 4.79701,-7.20401c0.68,-1.221 1.359,-2.444 2.108,-3.62401c0.639,-1.004 1.357,-1.949 2.076,-2.89501c0.23,0.694 0.511,1.374 0.806,2.037c0.938,2.056 2.16,3.96901 3.63001,5.68501l0.733,0.83l-0.921,-0.347c-1.126,-0.407 -2.268,-0.767 -3.42501,-1.081c-0.567,-0.152 -1.136,-0.284 -1.712,-0.398c-0.645,-0.128 -1.287,-0.16 -1.937,-0.248c-0.367,-0.049 -0.541,0.47 -0.158,0.574c0.983,0.272 1.95,0.659 2.92001,0.979c0.975,0.322 1.937,0.68 2.88701,1.072c1.889,0.795 3.72701,1.709 5.50101,2.73501c1.794,1.022 3.57001,2.062 5.29401,3.19701c1.698,1.056 3.31201,2.241 4.82801,3.54401c1.661,1.402 2.83101,3.29701 3.33701,5.41001c0.105,0.547 0.848,0.351 0.899,-0.121c0.126,-1.003 -0.007,-2.021 -0.386,-2.95701z" fill="#e31c79"></path><path d="M144.96112,281.39314c0.369,0.769 1.075,1.322 1.91,1.496c0.112,0.033 0.194,0.129 0.21,0.245c0.015,0.116 -0.039,0.23 -0.138,0.292c-0.392,0.245 -0.861,0.333 -1.315,0.247c-0.475,-0.11 -0.923,-0.315 -1.317,-0.602c-0.806,-0.673 -1.433,-1.536 -1.823,-2.511c-0.525,-1.064 -0.954,-2.166 -1.415,-3.25801c-0.227,-0.539 -0.446,-1.081 -0.663,-1.624c-0.232,-0.581 -0.372,-1.218 -0.656,-1.773c-0.117,-0.228 0.221,-0.428 0.344,-0.202c0.284,0.448 0.593,0.88 0.925,1.294c0.302,0.433 0.594,0.876 0.883,1.318c0.559,0.855 1.147,1.701 1.675,2.575c0.492,0.814 0.93,1.666 1.38,2.503z" fill="#ffc72c"></path><path d="M130.04909,279.58814c2.023,-0.529 3.96301,-1.348 5.99601,-1.827c0.364,-0.086 0.714,0.396 0.391,0.672c-1.909,1.427 -4.11001,2.412 -6.44501,2.88601c-2.316,0.585 -4.67401,0.987 -7.05201,1.203c-4.27601,0.351 -8.57002,0.445 -12.85802,0.283c-4.71201,-0.105 -9.42202,-0.153 -14.13503,-0.068c-2.411,0.044 -4.82111,0.116 -7.23031,0.217c-2.4392,0.102 -4.88471,0.131 -7.32201,0.262c-2.3733,0.127 -4.74011,0.353 -7.11281,0.483c-1.216,0.066 -2.435,0.082 -3.64971,0.164c-1.2147,0.081 -2.4285,0.183 -3.64511,0.231c-0.4204,0.017 -0.5163,-0.659 -0.0997,-0.738c2.63481,-0.499 5.32611,-0.843 7.98652,-1.181c2.68701,-0.34 5.40651,-0.447 8.10282,-0.699c4.73531,-0.442 9.50452,-0.557 14.25793,-0.624c4.66641,-0.066 9.32742,0.013 13.99243,0.108c4.22401,0.17 8.45502,0.079 12.66802,-0.272c2.076,-0.21 4.13401,-0.578 6.15501,-1.1z" fill="#ffc72c"></path><path d="M155.80014,281.89014c0.225,-0.029 0.446,0.076 0.566,0.269c0.262,0.51 0.123,1.135 -0.331,1.486c-0.183,0.134 -0.403,0.21 -0.63,0.217c-0.126,0.003 -0.222,-0.039 -0.319,-0.083c-0.072,-0.032 -0.144,-0.065 -0.231,-0.079c-0.204,-0.034 -0.137,-0.33 0.046,-0.34c0.111,-0.007 0.262,-0.341 0.303,-0.445c0.053,-0.203 0.092,-0.41 0.117,-0.619c0.066,-0.218 0.254,-0.376 0.479,-0.406z" fill="#ffc72c"></path><path d="M148.09112,283.27114c0.058,-0.102 0.167,-0.167 0.284,-0.169c0.085,-0.004 0.21,-0.018 0.359,-0.035c0.796,-0.092 2.277,-0.264 1.977,0.712c-0.271,0.552 -0.896,0.834 -1.488,0.671c-0.486,-0.1 -0.901,-0.411 -1.135,-0.848c-0.057,-0.103 -0.056,-0.229 0.003,-0.331z" fill="#ffc72c"></path><path d="M153.36713,283.11014c-0.258,-0.064 -0.467,0.039 -0.684,0.147c-0.066,0.032 -0.132,0.065 -0.201,0.093c-0.035,0.015 -0.077,0.034 -0.122,0.055c-0.188,0.088 -0.435,0.202 -0.591,0.148c-0.208,-0.071 -0.31,0.229 -0.143,0.341c0.159,0.105 0.259,0.275 0.429,0.371c0.193,0.095 0.406,0.14 0.621,0.132c0.471,-0.009 1.035,-0.299 1.054,-0.811c-0.002,-0.222 -0.15,-0.416 -0.363,-0.476z" fill="#ffc72c"></path></g></g></g></g></svg>